<svg width="56" height="56" viewBox="0 0 56 56" fill="none" xmlns="http://www.w3.org/2000/svg">
<path d="M33.9927 15.3475C34.8661 15.7612 35.2389 16.8047 34.8252 17.6782L30.3306 27.1676L39.8201 31.6621C40.6936 32.0759 41.0663 33.1193 40.6526 33.9928C40.2389 34.8663 39.1954 35.239 38.3219 34.8253L28.8325 30.3308L24.338 39.8202C23.9243 40.6937 22.8808 41.0664 22.0073 40.6527C21.1338 40.239 20.7611 39.1955 21.1748 38.322L25.6693 28.8326L16.1799 24.3381C15.3064 23.9244 14.9337 22.8809 15.3474 22.0074C15.7611 21.134 16.8046 20.7613 17.6781 21.175L27.1675 25.6695L31.662 16.18C32.0757 15.3065 33.1192 14.9338 33.9927 15.3475Z" fill="#E7E7E7"/>
</svg>
